<svg width="32" height="32" viewBox="0 0 32 32" fill="none" xmlns="http://www.w3.org/2000/svg">
<path fill-rule="evenodd" clip-rule="evenodd" d="M12.6666 16.737C16.3394 16.737 19.2834 13.7548 19.2834 10.0345C19.2834 6.3142 16.3394 3.33203 12.6666 3.33203C8.99387 3.33203 6.04979 6.3142 6.04979 10.0345C6.04979 13.7548 8.99387 16.737 12.6666 16.737ZM12.6666 20.019C7.27225 20.019 2.66663 20.8815 2.66663 24.3272C2.66663 27.7718 7.24423 28.6654 12.6666 28.6654C18.0597 28.6654 22.6666 27.8028 22.6666 24.357C22.6666 20.9112 18.089 20.019 12.6666 20.019ZM26.5305 12.7825H28.1346C28.7949 12.7825 29.3333 13.3284 29.3333 13.998C29.3333 14.6675 28.7949 15.2135 28.1346 15.2135H26.5305V16.7832C26.5305 17.4528 25.9936 17.9987 25.332 17.9987C24.6717 17.9987 24.1333 17.4528 24.1333 16.7832V15.2135H22.532C21.8702 15.2135 21.3333 14.6675 21.3333 13.998C21.3333 13.3284 21.8702 12.7825 22.532 12.7825H24.1333V11.2142C24.1333 10.5446 24.6717 9.9987 25.332 9.9987C25.9936 9.9987 26.5305 10.5446 26.5305 11.2142V12.7825Z" fill="white"/>
</svg>
