<svg width="32" height="32" viewBox="0 0 32 32" fill="none" xmlns="http://www.w3.org/2000/svg">
<path d="M28.5805 3.44394C27.9136 2.75944 26.9265 2.50442 26.0061 2.77285L4.54396 9.014C3.57289 9.28378 2.88461 10.0582 2.6992 11.042C2.50979 12.0433 3.1714 13.3144 4.03575 13.8458L10.7465 17.9704C11.4348 18.3932 12.3231 18.2872 12.8927 17.7126L20.5772 9.98037C20.964 9.57772 21.6042 9.57772 21.9912 9.98037C22.378 10.3696 22.378 11.0004 21.9912 11.4031L14.2933 19.1368C13.7224 19.7098 13.6157 20.6024 14.0358 21.2949L18.1362 28.073C18.6164 28.8782 19.4434 29.3346 20.3504 29.3346C20.4572 29.3346 20.5772 29.3346 20.684 29.3212C21.7244 29.187 22.5513 28.4757 22.8581 27.469L29.2208 6.03436C29.5009 5.12168 29.2474 4.12846 28.5805 3.44394Z" fill="white"/>
</svg>
