<svg xmlns="http://www.w3.org/2000/svg" width="48" height="48" fill="none"><path fill="#fff" fill-rule="evenodd" d="M7 20.636C7 11.436 14.688 4 23.987 4 33.312 4 41 11.436 41 20.636c0 4.635-1.686 8.94-4.461 12.587a44.126 44.126 0 0 1-11.082 10.282c-.972.636-1.85.684-2.916 0a43.281 43.281 0 0 1-11.08-10.282C8.684 29.575 7 25.271 7 20.636Zm11.389.518c0 3.081 2.514 5.505 5.598 5.505 3.085 0 5.625-2.424 5.625-5.505 0-3.058-2.54-5.6-5.625-5.6-3.084 0-5.598 2.542-5.598 5.6Z" clip-rule="evenodd"/></svg>